<svg width="29" height="26" viewBox="0 0 29 26" fill="none" xmlns="http://www.w3.org/2000/svg">
<path d="M9.6875 24.6875C10.2743 24.6875 10.75 24.2118 10.75 23.625C10.75 23.0382 10.2743 22.5625 9.6875 22.5625C9.1007 22.5625 8.625 23.0382 8.625 23.625C8.625 24.2118 9.1007 24.6875 9.6875 24.6875Z" stroke="black" stroke-width="1.5" stroke-linecap="round" stroke-linejoin="round"/>
<path d="M24.5625 24.6875C25.1493 24.6875 25.625 24.2118 25.625 23.625C25.625 23.0382 25.1493 22.5625 24.5625 22.5625C23.9757 22.5625 23.5 23.0382 23.5 23.625C23.5 24.2118 23.9757 24.6875 24.5625 24.6875Z" stroke="black" stroke-width="1.5" stroke-linecap="round" stroke-linejoin="round"/>
<path d="M1.1875 1.3125H5.4375L8.625 19.375H25.625" stroke="black" stroke-width="1.5" stroke-linecap="round" stroke-linejoin="round"/>
<path d="M8.625 15.125H25.1894C25.3122 15.1251 25.4313 15.0826 25.5264 15.0047C25.6214 14.9269 25.6866 14.8185 25.7107 14.698L27.6232 5.13551C27.6386 5.0584 27.6367 4.97883 27.6177 4.90253C27.5986 4.82624 27.5629 4.75513 27.513 4.69433C27.4631 4.63353 27.4004 4.58456 27.3293 4.55095C27.2582 4.51735 27.1805 4.49995 27.1019 4.5H6.5" stroke="black" stroke-width="1.5" stroke-linecap="round" stroke-linejoin="round"/>
</svg>
