<svg width="23" height="24" viewBox="0 0 23 24" fill="none" xmlns="http://www.w3.org/2000/svg">
<path fill-rule="evenodd" clip-rule="evenodd" d="M11.5 7.375C9.1804 7.375 7.3 9.50165 7.3 12.125C7.3 14.7484 9.1804 16.875 11.5 16.875C13.8196 16.875 15.7 14.7484 15.7 12.125C15.7 9.50165 13.8196 7.375 11.5 7.375ZM8.7 12.125C8.7 10.3761 9.9536 8.95833 11.5 8.95833C13.0464 8.95833 14.3 10.3761 14.3 12.125C14.3 13.8739 13.0464 15.2917 11.5 15.2917C9.9536 15.2917 8.7 13.8739 8.7 12.125Z" fill="black"/>
<path fill-rule="evenodd" clip-rule="evenodd" d="M2.4 5C1.6268 5 1 5.70888 1 6.58333V17.6667C1 18.5411 1.6268 19.25 2.4 19.25H20.6C21.3732 19.25 22 18.5411 22 17.6667V6.58333C22 5.70888 21.3732 5 20.6 5H2.4ZM5.84126 17.6667H17.1587C17.3031 16.7006 17.7095 15.8015 18.3302 15.0996C18.9508 14.3976 19.7458 13.938 20.6 13.7747V10.4753C19.7458 10.312 18.9508 9.85239 18.3302 9.15042C17.7095 8.44846 17.3031 7.54941 17.1587 6.58333H5.84126C5.78877 6.93454 5.70139 7.27878 5.58029 7.60941C5.36922 8.18571 5.05985 8.70935 4.66985 9.15042C4.27984 9.5915 3.81684 9.94139 3.30727 10.1801C3.01493 10.317 2.71054 10.4159 2.4 10.4752V13.7748C2.71054 13.8341 3.01493 13.933 3.30727 14.0699C3.81684 14.3086 4.27984 14.6585 4.66985 15.0996C5.05985 15.5407 5.36922 16.0643 5.58029 16.6406C5.70139 16.9712 5.78877 17.3155 5.84126 17.6667ZM2.4 15.3922C2.52631 15.4291 2.65046 15.476 2.77151 15.5327C3.11123 15.6919 3.41989 15.9251 3.6799 16.2192C3.9399 16.5132 4.14615 16.8623 4.28686 17.2465C4.337 17.3834 4.37848 17.5238 4.41109 17.6667H2.4V15.3922ZM20.6 17.6667H18.5889C18.7129 17.1236 18.9634 16.6225 19.3201 16.2192C19.6768 15.8158 20.1198 15.5325 20.6 15.3922V17.6667ZM4.41109 6.58333H2.4V8.85778C2.52631 8.8209 2.65046 8.77399 2.77151 8.71729C3.11123 8.55815 3.41989 8.32489 3.6799 8.03084C3.9399 7.73679 4.14615 7.3877 4.28686 7.0035C4.337 6.86659 4.37848 6.72618 4.41109 6.58333ZM20.6 6.58333V8.85779C20.1198 8.71754 19.6768 8.43423 19.3201 8.03084C18.9634 7.62745 18.7129 7.12644 18.5889 6.58333H20.6Z" fill="black"/>
</svg>
