<svg width="527" height="527" viewBox="0 0 527 527" fill="none" xmlns="http://www.w3.org/2000/svg">
<g filter="url(#filter0_d)">
<path d="M103.736 18.0768C106.83 19.5648 109.442 21.8967 111.27 24.8038C113.097 27.711 114.067 31.0752 114.067 34.5092C114.067 54.6851 121.651 66.3045 131.155 80.452L131.86 81.4729C139.931 93.4812 150.529 109.209 150.529 131.743C150.529 154.738 138.934 175.011 121.262 187.044C125.905 190.933 130.013 195.722 133.562 201.459C145.133 220.176 150.529 248.787 150.529 289.868C150.529 331.484 144.938 381.462 135.823 421.376C131.301 441.212 125.686 459.516 119.001 473.25C115.671 480.081 111.611 486.742 106.604 491.968C101.596 497.097 93.8907 502.566 83.6812 502.566C73.4717 502.566 65.766 497.097 60.7827 491.968C55.7074 486.407 51.5253 480.093 48.3855 473.25C41.6764 459.492 36.0612 441.212 31.5398 421.352C22.0583 378.15 17.1292 334.073 16.8333 289.844C16.8333 248.763 22.2297 220.176 33.8005 201.459C37.1015 196.026 41.2545 191.159 46.1005 187.044C37.0766 180.917 29.6909 172.674 24.5889 163.033C19.4869 153.393 16.8241 142.65 16.8333 131.743C16.8333 122.797 16.8333 107.41 26.1434 87.55C35.259 68.1033 52.5908 45.764 84.4348 20.2645C87.1186 18.1177 90.3546 16.7732 93.7695 16.3862C97.1845 15.9991 100.639 16.5851 103.736 18.0768ZM53.2958 131.718V131.743C53.2958 139.801 56.4971 147.53 62.1955 153.228C67.8938 158.927 75.6225 162.128 83.6812 162.128C91.7399 162.128 99.4686 158.927 105.167 153.228C110.865 147.53 114.067 139.801 114.067 131.743C114.067 121.071 109.57 113.681 100.892 100.774L100.6 100.336C95.0332 92.0714 88.4456 82.2751 83.7784 69.7077C70.579 83.1259 63.2865 94.2591 59.1784 103.01C53.2958 115.553 53.2958 124.474 53.2958 131.694V131.718ZM64.8179 220.614C58.7895 230.386 53.2958 250.416 53.2958 289.868C53.2958 328.786 58.595 376.041 67.0786 413.257C71.3569 431.975 76.2185 447.168 81.1531 457.28C82.0525 459.152 82.9033 460.707 83.6812 462.02C84.4591 460.707 85.3099 459.152 86.2093 457.28C91.1439 447.168 96.0055 431.951 100.284 413.257C108.792 376.066 114.067 328.81 114.067 289.868C114.067 250.416 108.573 230.386 102.544 220.614C100.726 217.324 97.9783 214.644 94.6443 212.908C91.1921 211.405 87.4431 210.706 83.6812 210.866C78.8195 210.866 75.3434 211.62 72.7181 212.908C69.3841 214.644 66.636 217.324 64.8179 220.614Z" fill="#5565FD"/>
<path d="M211.3 330.269C198.422 328.109 185.895 324.216 174.06 318.698C174.771 304.911 174.974 291.103 174.667 277.301C185.63 284.666 198.003 290.087 211.3 293.101V222.899C211.3 213.228 215.142 203.954 221.98 197.116C228.818 190.278 238.092 186.436 247.763 186.436H344.996C344.995 166.034 339.288 146.039 328.52 128.71C317.752 111.381 302.353 97.4081 284.061 88.3711C265.77 79.334 245.315 75.5926 225.009 77.5695C204.703 79.5464 185.354 87.1629 169.149 99.5583C164.288 86.1158 157.36 75.8334 152.547 68.6867L151.574 67.2282C173.414 51.8324 199.064 42.7324 225.724 40.9214C252.383 39.1105 279.028 44.6583 302.75 56.9592C326.471 69.2601 346.357 87.8413 360.237 110.674C374.118 133.508 381.458 159.715 381.458 186.436H466.538C476.208 186.436 485.482 190.278 492.32 197.116C499.158 203.954 503 213.228 503 222.899V441.674C503 451.344 499.158 460.619 492.32 467.457C485.482 474.295 476.208 478.136 466.538 478.136H247.763C238.092 478.136 228.818 474.295 221.98 467.457C215.142 460.619 211.3 451.344 211.3 441.674V330.269ZM247.763 331.8V441.674H466.538V222.899H376.84C369.266 252.191 352.777 278.405 329.652 297.915C306.528 317.425 277.911 329.266 247.763 331.8ZM338.773 222.899H247.763V295.167C268.186 292.878 287.553 284.885 303.648 272.105C319.742 259.325 331.915 242.273 338.773 222.899Z" fill="#5565FD"/>
</g>
<defs>
<filter id="filter0_d" x="0.833252" y="0.270142" width="526.167" height="526.296" filterUnits="userSpaceOnUse" color-interpolation-filters="sRGB">
<feFlood flood-opacity="0" result="BackgroundImageFix"/>
<feColorMatrix in="SourceAlpha" type="matrix" values="0 0 0 0 0 0 0 0 0 0 0 0 0 0 0 0 0 0 127 0"/>
<feOffset dx="4" dy="4"/>
<feGaussianBlur stdDeviation="10"/>
<feColorMatrix type="matrix" values="0 0 0 0 0 0 0 0 0 0 0 0 0 0 0 0 0 0 0.25 0"/>
<feBlend mode="normal" in2="BackgroundImageFix" result="effect1_dropShadow"/>
<feBlend mode="normal" in="SourceGraphic" in2="effect1_dropShadow" result="shape"/>
</filter>
</defs>
</svg>
