<svg width="16" height="14" viewBox="0 0 16 14" fill="none" xmlns="http://www.w3.org/2000/svg">
<path fill-rule="evenodd" clip-rule="evenodd" d="M13.3333 4.39211L15.8354 6.63767C16.0482 6.82863 16.0556 7.14515 15.8519 7.34464C15.6482 7.54412 15.3106 7.55104 15.0978 7.36008L14.4 6.73377V12.9991C14.4 13.2643 14.2876 13.5187 14.0876 13.7062C13.8875 13.8938 13.6162 13.9991 13.3333 13.9991H10.1333C9.83876 13.9991 9.59997 13.7753 9.59997 13.4991V9.24896C9.59997 9.18265 9.57188 9.11906 9.52187 9.07218C9.47186 9.02529 9.40403 8.99895 9.33331 8.99895H6.66664C6.59592 8.99895 6.52809 9.02529 6.47808 9.07218C6.42807 9.11906 6.39997 9.18265 6.39997 9.24896V13.4991C6.39997 13.7753 6.16119 13.9991 5.86664 13.9991H2.66664C2.38374 13.9991 2.11243 13.8938 1.91239 13.7062C1.71235 13.5187 1.59997 13.2643 1.59997 12.9991V6.73377L0.902106 7.36008C0.689329 7.55104 0.351721 7.54412 0.148039 7.34464C-0.055643 7.14515 -0.0482694 6.82863 0.164508 6.63767L7.26137 0.268524C7.47893 0.0617369 7.77541 -0.00123367 8.00205 -0.000852777C8.22777 -0.000473408 8.52319 0.0630136 8.73903 0.268935L10.6666 1.99888V0.998635C10.6666 0.722482 10.9054 0.498616 11.2 0.498616H12.8C13.0945 0.498616 13.3333 0.722482 13.3333 0.998635V4.39211ZM12.2666 3.43482V1.49865H11.7333V2.95617L12.2666 3.43482ZM8.01066 0.999621L13.3333 5.77648V12.9991H10.6666V9.24896C10.6666 8.91742 10.5262 8.59947 10.2761 8.36504C10.0261 8.13061 9.68693 7.99891 9.33331 7.99891H6.66664C6.31302 7.99891 5.97388 8.13061 5.72383 8.36504C5.47378 8.59947 5.33331 8.91742 5.33331 9.24896V12.9991H2.66664V5.77648L7.9893 0.999613C7.99264 0.999338 7.99628 0.999178 8.00014 0.999185C8.00388 0.999191 8.00741 0.999352 8.01066 0.999621Z" fill="black"/>
</svg>
