<svg width="24" height="24" viewBox="0 0 24 24" fill="none" xmlns="http://www.w3.org/2000/svg">
<path fill-rule="evenodd" clip-rule="evenodd" d="M12 7.42873C10.6745 7.42873 9.6 8.45213 9.6 9.71455C9.6 10.977 10.6745 12.0004 12 12.0004C13.3255 12.0004 14.4 10.977 14.4 9.71455C14.4 8.45213 13.3255 7.42873 12 7.42873ZM10.8 9.71455C10.8 9.08334 11.3373 8.57164 12 8.57164C12.6627 8.57164 13.2 9.08334 13.2 9.71455C13.2 10.3458 12.6627 10.8575 12 10.8575C11.3373 10.8575 10.8 10.3458 10.8 9.71455Z" fill="black"/>
<path fill-rule="evenodd" clip-rule="evenodd" d="M12 4C8.71583 4 6 6.42202 6 9.46454C6 11.1786 6.97375 13.3005 8.04035 15.1349C9.12298 16.9969 10.3698 18.6748 11.0384 19.5352C11.1487 19.6789 11.293 19.7958 11.4596 19.8766C11.627 19.9577 11.8122 20 12 20C12.1878 20 12.373 19.9577 12.5404 19.8766C12.707 19.7958 12.8512 19.6789 12.9616 19.5352C13.6302 18.6752 14.877 16.9979 15.9596 15.1362C17.0263 13.3019 18 11.1798 18 9.46454C18 6.42202 15.2842 4 12 4ZM7.2 9.46454C7.2 7.10609 9.32167 5.14291 12 5.14291C14.6783 5.14291 16.8 7.10609 16.8 9.46454C16.8 10.8591 15.9737 12.753 14.9099 14.5824C13.8649 16.3794 12.6545 18.0094 12 18.8515C11.3455 18.009 10.1351 16.3785 9.09012 14.5812C8.02625 12.7515 7.2 10.8578 7.2 9.46454Z" fill="black"/>
</svg>
