<svg width="24" height="24" viewBox="0 0 24 18" fill="none" xmlns="http://www.w3.org/2000/svg">
<path d="M4.00006 7.34026C4.00006 6.94577 4.29854 6.62598 4.66673 6.62598H19.3334C19.7016 6.62598 20.0001 6.94577 20.0001 7.34026C20.0001 7.73475 19.7016 8.05455 19.3334 8.05455H4.66673C4.29854 8.05455 4.00006 7.73475 4.00006 7.34026Z" fill="black"/>
<path d="M4.00006 11.626C4.00006 11.2315 4.29854 10.9117 4.66673 10.9117H19.3334C19.7016 10.9117 20.0001 11.2315 20.0001 11.626C20.0001 12.0205 19.7016 12.3403 19.3334 12.3403H4.66673C4.29854 12.3403 4.00006 12.0205 4.00006 11.626Z" fill="black"/>
<path d="M4.66673 15.1974C4.29854 15.1974 4.00006 15.5172 4.00006 15.9117C4.00006 16.3062 4.29854 16.626 4.66673 16.626H19.3334C19.7016 16.626 20.0001 16.3062 20.0001 15.9117C20.0001 15.5172 19.7016 15.1974 19.3334 15.1974H4.66673Z" fill="black"/>
</svg>
