<svg width="24" height="24" viewBox="0 0 24 24" fill="none" transform='scale(4) translate(10 10)' xmlns="http://www.w3.org/2000/svg">
<rect width="24" height="24" fill="#07884A"/>
<path fill-rule="evenodd" clip-rule="evenodd" d="M14.656 12.4853C14.656 12.4853 14.6127 12.3261 14.6127 12.2083V10.3654H15.3512V13.9154L12.9874 11.9586C12.8609 11.8509 12.7863 11.7308 12.7863 11.7308C12.7863 11.7308 12.8235 11.8631 12.8235 11.9777L12.8227 13.8353H12.0844V10.299L14.4264 12.2169C14.5517 12.3233 14.656 12.4853 14.656 12.4853" fill="#FFFFFE"/>
<path fill-rule="evenodd" clip-rule="evenodd" d="M21.3409 10.3652C22.5104 10.3652 22.8102 10.8265 22.8102 11.4896C22.8102 11.9704 22.4563 12.4407 21.7426 12.4967L21.6646 12.5003C21.6646 12.5003 21.7334 12.5127 21.8055 12.5822L23.1011 13.8351H22.0999L20.2916 11.9992H21.1923C21.9986 11.9992 22.0218 11.5743 22.0278 11.4667C22.0429 11.1916 21.9546 10.9708 21.3393 10.9708H20.3099V13.8351H19.5421V10.3652H21.3409" fill="#FFFFFE"/>
<path fill-rule="evenodd" clip-rule="evenodd" d="M15.6832 12.1496C15.6832 10.6958 16.9004 10.3143 17.9232 10.3143C18.3328 10.3143 18.6958 10.3508 19.0769 10.4316L19.0783 11.1686C18.8586 11.1015 18.4176 10.9535 17.9232 10.9535C16.9537 10.9535 16.4828 11.3301 16.4828 12.1496C16.4828 12.8209 16.99 13.2487 17.9232 13.2487C18.4176 13.2487 18.9134 13.131 19.1529 13.0423L19.1516 13.7575C18.7704 13.8381 18.3328 13.8879 17.9232 13.8879C16.8307 13.8879 15.6832 13.3569 15.6832 12.1496" fill="#FFFFFE"/>
<path fill-rule="evenodd" clip-rule="evenodd" d="M7.37375 10.4549L8.09395 11.133C8.0746 11.1416 8.05191 11.1525 8.02513 11.1659C7.98376 11.1874 7.93392 11.2165 7.87425 11.2576C7.75577 11.3397 7.6007 11.4696 7.40283 11.6835L5.9958 13.1722C5.75437 13.427 5.50912 13.6289 5.28123 13.7355L4.56104 13.0574C4.58057 13.0485 4.60355 13.038 4.62957 13.024C4.67122 13.0031 4.72097 12.9737 4.78035 12.9325C4.89883 12.8506 5.0541 12.721 5.25168 12.5072L6.65871 11.0205C6.90023 10.766 7.14576 10.5616 7.37375 10.4549" fill="#FFFFFE"/>
<path fill-rule="evenodd" clip-rule="evenodd" d="M4.58684 14.0542C4.90538 14.0542 5.19771 13.9909 5.39625 13.8881C5.48689 13.8407 5.61633 13.759 5.72794 13.6726C5.83908 13.5859 5.99587 13.4513 6.12912 13.3098L7.53805 11.8252C7.8931 11.451 8.10679 11.3356 8.23613 11.2901L8.9588 11.9742C8.80802 12.1356 7.00973 14.0505 7.00973 14.0505C6.88677 14.1828 6.75772 14.3104 6.67003 14.391C6.58586 14.4689 6.44137 14.5844 6.36683 14.6391C5.94392 14.9491 5.37881 15.2003 4.61801 15.2003C2.89444 15.2003 1.5 13.7974 1.5 12.1822C1.5 10.1781 3.06601 9.01554 4.49258 9.01554C4.9295 9.00267 5.28044 9.07595 5.55752 9.1702C5.81401 9.25749 6.00759 9.36279 6.1479 9.43445C5.98214 9.54089 5.82154 9.68564 5.55647 9.96867L5.26767 10.2788C5.20105 10.2534 4.90595 10.1508 4.52679 10.162C3.61197 10.1891 2.61098 10.931 2.64701 12.1474C2.68066 13.2851 3.61874 14.0542 4.58684 14.0542" fill="#FFFFFE"/>
<path fill-rule="evenodd" clip-rule="evenodd" d="M7.25092 10.3124C7.1599 10.3596 7.03046 10.4411 6.91885 10.5278C6.80781 10.6142 6.65092 10.749 6.51758 10.8903L5.10912 12.3751C4.75379 12.7492 4.54019 12.8645 4.41075 12.9101L3.68799 12.2262C3.83906 12.0647 5.63726 10.1499 5.63726 10.1499C5.76012 10.0177 5.88917 9.89033 5.97686 9.80914C6.06112 9.73138 6.20561 9.61588 6.28034 9.56109C6.70277 9.25129 7.26865 9 8.02935 9C9.7532 9 11.1469 10.4026 11.1469 12.0178C11.1469 14.0221 9.58107 15.1844 8.15441 15.1844C7.71749 15.1975 7.36644 15.124 7.08937 15.0296C6.8324 14.9423 6.63825 14.8367 6.49804 14.765C6.67342 14.6469 6.82354 14.5168 7.09051 14.2319L7.37931 13.9215C7.44584 13.9466 7.74103 14.0495 8.1199 14.0385C9.03492 14.0113 10.0361 13.2691 9.99997 12.0525C9.96614 10.9152 9.02767 10.1461 8.05966 10.1461C7.74103 10.1461 7.44937 10.2092 7.25092 10.3124" fill="#FFFFFE"/>
</svg>
