<svg width="24" height="24" viewBox="0 0 24 24" fill="none" xmlns="http://www.w3.org/2000/svg">
<path d="M13.1467 6.9801C11.7394 6.7051 10.2834 6.82509 8.94006 7.32676C8.87484 7.35259 8.81534 7.39101 8.76496 7.43983C8.71459 7.48865 8.67432 7.54692 8.64647 7.6113C8.5902 7.74132 8.5879 7.88837 8.64006 8.0201C8.69222 8.15182 8.79457 8.25743 8.92459 8.31369C9.05462 8.36995 9.20167 8.37226 9.33339 8.3201C10.49 7.88276 11.7447 7.77206 12.9601 8.0001C13.0313 8.01885 13.1057 8.02263 13.1784 8.01122C13.2512 7.99981 13.3208 7.97344 13.3829 7.93378C13.445 7.89412 13.4982 7.84203 13.5391 7.78079C13.5801 7.71955 13.6079 7.65049 13.6208 7.57797C13.6338 7.50544 13.6316 7.43103 13.6143 7.35941C13.597 7.28779 13.5651 7.22052 13.5206 7.16184C13.476 7.10317 13.4198 7.05435 13.3555 7.01849C13.2911 6.98262 13.2201 6.96047 13.1467 6.95343V6.9801Z" fill="black"/>
<path d="M16.9201 12.0467C17.4208 12.0467 17.8268 11.6408 17.8268 11.1401C17.8268 10.6393 17.4208 10.2334 16.9201 10.2334C16.4194 10.2334 16.0134 10.6393 16.0134 11.1401C16.0134 11.6408 16.4194 12.0467 16.9201 12.0467Z" fill="black"/>
<path d="M23.6733 12.4199C23.6116 12.3285 23.528 12.2538 23.4303 12.2026C23.3326 12.1514 23.2237 12.1253 23.1133 12.1266C22.5747 12.0518 22.0805 11.787 21.72 11.3799C21.0262 10.6215 20.4365 9.77407 19.9667 8.8599L21.8867 5.8599C22.0032 5.68605 22.0745 5.48592 22.0943 5.27758C22.1141 5.06923 22.0817 4.85924 22 4.66657C21.9182 4.49128 21.7945 4.3388 21.6399 4.22254C21.4853 4.10629 21.3044 4.02983 21.1133 3.9999C19.8924 3.83536 18.6497 4.00827 17.52 4.4999C16.8726 4.78507 16.2634 5.15013 15.7067 5.58657C14.6162 5.09762 13.4551 4.78484 12.2667 4.6599C7.54 4.1999 3.22 7.26657 2.66667 11.3332C2.45102 11.2362 2.25789 11.0955 2.09952 10.9199C1.94114 10.7443 1.82099 10.5377 1.74667 10.3132C1.69913 10.1593 1.6829 9.99743 1.69893 9.83713C1.71496 9.67683 1.76293 9.52137 1.84 9.3799C1.90911 9.26113 2.0079 9.16235 2.12667 9.09323C2.20765 9.04421 2.27818 8.97971 2.33424 8.90342C2.39029 8.82714 2.43077 8.74056 2.45337 8.64863C2.47596 8.5567 2.48023 8.46122 2.46593 8.36764C2.45162 8.27406 2.41903 8.18422 2.37 8.10323C2.32097 8.02225 2.25647 7.95172 2.18019 7.89566C2.1039 7.83961 2.01732 7.79913 1.92539 7.77653C1.83346 7.75394 1.73798 7.74967 1.64441 7.76397C1.55083 7.77828 1.46098 7.81087 1.38 7.8599C1.05728 8.05798 0.790962 8.33578 0.606665 8.66657C0.435321 8.97701 0.327609 9.3185 0.289834 9.67107C0.252059 10.0236 0.284978 10.3802 0.386665 10.7199C0.511831 11.1315 0.719395 11.5134 0.996741 11.8423C1.27409 12.1713 1.61542 12.4403 2 12.6332L2.61333 12.9399C2.68995 14.5627 3.10314 16.1519 3.82667 17.6066L3.94 17.8599C4.51823 19.0828 5.25574 20.2238 6.13333 21.2532C6.1958 21.3243 6.27271 21.3813 6.35892 21.4204C6.44513 21.4595 6.53867 21.4798 6.63333 21.4799H9.64667C9.75585 21.4794 9.86324 21.452 9.95938 21.4002C10.0555 21.3485 10.1375 21.2739 10.198 21.183C10.2586 21.0922 10.2959 20.9879 10.3067 20.8792C10.3175 20.7705 10.3015 20.6609 10.26 20.5599L10 19.9599L10.7867 20.0466C11.6734 20.1342 12.5666 20.1342 13.4533 20.0466C13.7 20.4466 13.9667 20.8466 14.26 21.2399C14.3214 21.3239 14.4016 21.3924 14.4942 21.4399C14.5868 21.4873 14.6893 21.5125 14.7933 21.5132H17.6867C17.7967 21.5131 17.905 21.4858 18.0019 21.4337C18.0988 21.3816 18.1813 21.3063 18.242 21.2145C18.3028 21.1228 18.3399 21.0174 18.35 20.9078C18.3601 20.7983 18.3429 20.6879 18.3 20.5866C18.1867 20.3199 18.0733 20.0332 17.9867 19.7866C17.8667 19.4332 17.7733 19.1199 17.7 18.8199C18.4363 18.4224 19.112 17.9218 19.7067 17.3332C20.3709 17.4135 21.0424 17.4135 21.7067 17.3332C21.8219 17.3158 21.9306 17.2685 22.0218 17.1959C22.1131 17.1234 22.1837 17.0282 22.2267 16.9199L23.7333 13.0466C23.7757 12.9453 23.7924 12.835 23.782 12.7257C23.7715 12.6164 23.7342 12.5113 23.6733 12.4199V12.4199ZM21.1533 16.0466C20.63 16.0764 20.1049 16.0518 19.5867 15.9732C18.9965 15.8735 18.4267 15.6776 17.9 15.3932C17.744 15.3159 17.564 15.3026 17.3983 15.3563C17.2327 15.41 17.0947 15.5263 17.0137 15.6804C16.9327 15.8345 16.9152 16.0142 16.965 16.1811C17.0148 16.3479 17.1278 16.4887 17.28 16.5732C17.5586 16.7193 17.8458 16.8484 18.14 16.9599C17.7765 17.2703 17.3728 17.5304 16.94 17.7332L16.2333 18.0532C16.2333 18.0532 16.56 19.5132 16.78 20.1599H15.1933C15.0333 19.9332 14.2267 18.5866 14.2267 18.5866L13.78 18.6466C12.8418 18.7819 11.8911 18.8087 10.9467 18.7266C10.5067 18.6866 9.77333 18.5932 9.2 18.4932L8.16666 18.3132C8.16666 18.3132 8.58666 19.9332 8.66666 20.1399H6.94667C6.24407 19.2796 5.6486 18.3372 5.17333 17.3332L5.05333 17.0732C4.18713 15.4059 3.82134 13.5237 4 11.6532C4.36 8.19323 8.08 5.5799 12.1267 5.9599C13.3038 6.09186 14.4495 6.42563 15.5133 6.94657L15.9267 7.1399L16.26 6.82657C16.7791 6.36269 17.3658 5.98053 18 5.69323C18.839 5.32933 19.7556 5.18039 20.6667 5.2599L18.4133 8.78657L18.58 9.1199C19.1622 10.2927 19.9049 11.3786 20.7867 12.3466C21.1962 12.7468 21.6811 13.0618 22.2133 13.2732L21.1533 16.0466Z" fill="black"/>
</svg>
