<svg width="54" height="54" viewBox="0 0 54 54" fill="none" xmlns="http://www.w3.org/2000/svg">
<g clip-path="url(#clip0)">
<path d="M34.5083 53.9528L50.7443 50.4405C50.7443 50.4405 44.8853 10.8113 44.8381 10.548C44.7976 10.287 44.5816 10.116 44.3633 10.116C44.1451 10.116 40.0231 9.81 40.0231 9.81C40.0231 9.81 37.1543 6.9435 36.7853 6.63525C36.7057 6.56333 36.6134 6.50686 36.5131 6.46875L34.4566 53.9528H34.5083V53.9528ZM26.3476 25.4363C26.3476 25.4363 24.5251 24.4822 22.3561 24.4822C19.1003 24.4822 18.9721 26.5208 18.9721 27.0495C18.9721 29.8215 26.2621 30.9082 26.2621 37.4647C26.2621 42.6285 23.0221 45.9247 18.5986 45.9247C13.3021 45.9247 10.6336 42.6285 10.6336 42.6285L12.0871 37.935C12.0871 37.935 14.8883 40.3335 17.2171 40.3335C17.4995 40.3428 17.781 40.2956 18.0451 40.1948C18.3091 40.0939 18.5503 39.9413 18.7546 39.746C18.9589 39.5507 19.1222 39.3166 19.2349 39.0574C19.3476 38.7982 19.4074 38.5191 19.4108 38.2365C19.4108 34.5937 13.4393 34.425 13.4393 28.4288C13.3628 23.3955 16.9741 18.4927 24.3001 18.4927C27.1283 18.4927 28.5188 19.305 28.5188 19.305L26.3926 25.4138L26.3476 25.4363V25.4363ZM25.1326 1.8675C25.4386 1.8675 25.7423 1.953 26.0438 2.17125C23.8298 3.2175 21.3998 5.859 20.4008 11.1532C18.991 11.609 17.574 12.0426 16.1506 12.4537C17.3183 8.4375 20.1398 1.89 25.1326 1.89V1.8675ZM27.9113 8.50275V8.8065C26.2148 9.3285 24.3496 9.8955 22.5248 10.4625C23.5733 6.46425 25.5241 4.51125 27.2161 3.77775C27.6503 4.905 27.9113 6.42375 27.9113 8.50275V8.50275ZM29.1241 3.47625C30.6856 3.64275 31.6913 5.427 32.3393 7.425C31.5541 7.6815 30.6856 7.94475 29.7338 8.2485V7.6815C29.7338 5.9895 29.5178 4.59675 29.1241 3.47175V3.47625V3.47625ZM35.8561 6.3765C35.8111 6.3765 35.7211 6.42375 35.6806 6.42375C35.6401 6.42375 35.0303 6.5925 34.0741 6.89625C33.1223 4.122 31.4281 1.56375 28.4311 1.56375H28.1723C27.3038 0.47025 26.2553 0 25.3463 0C18.3578 0 15.0188 8.72325 13.9726 13.1535C11.2861 13.9748 9.33081 14.5845 9.11256 14.67C7.59381 15.1492 7.55106 15.192 7.37556 16.6275C7.20681 17.667 3.25806 48.2692 3.25806 48.2692L33.7703 54L35.8561 6.3765Z" fill="black"/>
</g>
<defs>
<clipPath id="clip0">
<rect width="54" height="54" fill="white"/>
</clipPath>
</defs>
</svg>
