<svg width="29" height="29" viewBox="0 0 29 29" fill="none" xmlns="http://www.w3.org/2000/svg">
<path fill-rule="evenodd" clip-rule="evenodd" d="M14.5 7.37561C12.1804 7.37561 10.3 9.50226 10.3 12.1256C10.3 14.749 12.1804 16.8756 14.5 16.8756C16.8196 16.8756 18.7 14.749 18.7 12.1256C18.7 9.50226 16.8196 7.37561 14.5 7.37561ZM11.7 12.1256C11.7 10.3767 12.9536 8.95894 14.5 8.95894C16.0464 8.95894 17.3 10.3767 17.3 12.1256C17.3 13.8745 16.0464 15.2923 14.5 15.2923C12.9536 15.2923 11.7 13.8745 11.7 12.1256Z" fill="black"/>
<path fill-rule="evenodd" clip-rule="evenodd" d="M5.4 5.00061C4.6268 5.00061 4 5.70949 4 6.58394V17.6673C4 18.5417 4.6268 19.2506 5.4 19.2506H23.6C24.3732 19.2506 25 18.5417 25 17.6673V6.58394C25 5.70949 24.3732 5.00061 23.6 5.00061H5.4ZM8.84126 17.6673H20.1587C20.3031 16.7012 20.7095 15.8022 21.3302 15.1002C21.9508 14.3982 22.7458 13.9387 23.6 13.7754V10.4759C22.7458 10.3126 21.9508 9.853 21.3302 9.15103C20.7095 8.44907 20.3031 7.55002 20.1587 6.58394H8.84126C8.78877 6.93515 8.70139 7.2794 8.58029 7.61002C8.36922 8.18632 8.05985 8.70996 7.66985 9.15103C7.27984 9.59211 6.81684 9.942 6.30727 10.1807C6.01493 10.3177 5.71054 10.4165 5.4 10.4758V13.7754C5.71054 13.8347 6.01493 13.9336 6.30727 14.0705C6.81684 14.3092 7.27984 14.6591 7.66985 15.1002C8.05985 15.5413 8.36922 16.0649 8.58029 16.6412C8.70139 16.9718 8.78877 17.3161 8.84126 17.6673ZM5.4 15.3928C5.52631 15.4297 5.65046 15.4766 5.77151 15.5333C6.11123 15.6925 6.41989 15.9257 6.6799 16.2198C6.9399 16.5138 7.14615 16.8629 7.28686 17.2471C7.337 17.384 7.37848 17.5244 7.41109 17.6673H5.4V15.3928ZM23.6 17.6673H21.5889C21.7129 17.1242 21.9634 16.6232 22.3201 16.2198C22.6768 15.8164 23.1198 15.5331 23.6 15.3928V17.6673ZM7.41109 6.58394H5.4V8.85839C5.52631 8.82151 5.65046 8.7746 5.77151 8.7179C6.11123 8.55876 6.41989 8.3255 6.6799 8.03145C6.9399 7.7374 7.14615 7.38831 7.28686 7.00411C7.337 6.8672 7.37848 6.72679 7.41109 6.58394ZM23.6 6.58394V8.8584C23.1198 8.71815 22.6768 8.43484 22.3201 8.03145C21.9634 7.62806 21.7129 7.12705 21.5889 6.58394H23.6Z" fill="black"/>
<path d="M6.1 20.0423C5.7134 20.0423 5.4 20.3967 5.4 20.8339C5.4 21.2712 5.7134 21.6256 6.1 21.6256H22.9C23.2866 21.6256 23.6 21.2712 23.6 20.8339C23.6 20.3967 23.2866 20.0423 22.9 20.0423H6.1Z" fill="black"/>
<path d="M6.8 23.2089C6.8 22.7717 7.1134 22.4173 7.5 22.4173H21.5C21.8866 22.4173 22.2 22.7717 22.2 23.2089C22.2 23.6462 21.8866 24.0006 21.5 24.0006H7.5C7.1134 24.0006 6.8 23.6462 6.8 23.2089Z" fill="black"/>
</svg>
