<svg width="16" height="10" viewBox="0 0 16 10" fill="none" xmlns="http://www.w3.org/2000/svg">
<path d="M11.4286 0.000732422C11.113 0.000732422 10.8571 0.280554 10.8571 0.625732C10.8571 0.97091 11.113 1.25073 11.4286 1.25073H14.049L9.54701 6.17481L9.54696 6.17486C9.4939 6.23291 9.4309 6.27896 9.36156 6.31038C9.29223 6.3418 9.21791 6.35797 9.14286 6.35797C9.06781 6.35797 8.99349 6.3418 8.92415 6.31038C8.85481 6.27896 8.79181 6.23291 8.73875 6.17486L6.92661 4.19283C6.76742 4.01867 6.57842 3.88052 6.37041 3.78627C6.16239 3.69201 5.93944 3.6435 5.71429 3.6435C5.48913 3.6435 5.26618 3.69201 5.05817 3.78627C4.85015 3.88052 4.66116 4.01867 4.50196 4.19283L0.167368 8.93379C-0.0557892 9.17787 -0.0557892 9.5736 0.167368 9.81767C0.390524 10.0618 0.752333 10.0618 0.97549 9.81767L5.31018 5.07661C5.36324 5.01856 5.42624 4.97251 5.49558 4.94109C5.56492 4.90967 5.63923 4.8935 5.71429 4.8935C5.78934 4.8935 5.86365 4.90967 5.93299 4.94109C6.00233 4.97251 6.06533 5.01856 6.11839 5.07661L7.93054 7.05864C8.08973 7.23279 8.27873 7.37094 8.48674 7.4652C8.69475 7.55945 8.9177 7.60797 9.14286 7.60797C9.36801 7.60797 9.59096 7.55945 9.79898 7.4652C10.007 7.37095 10.196 7.23282 10.3551 7.05869L14.8571 2.13462V5.00073C14.8571 5.34591 15.113 5.62573 15.4286 5.62573C15.7442 5.62573 16 5.34591 16 5.00073V0.625732C16 0.280554 15.7442 0.000732422 15.4286 0.000732422H11.4286Z" fill="black"/>
</svg>
