<svg width="39" height="12" viewBox="0 0 39 12" fill="none" xmlns="http://www.w3.org/2000/svg">
<g clip-path="url(#clip0)">
<path d="M28.2574 0.54264C27.3558 0.214127 26.4028 0.0492769 25.4433 0.0558533C22.3403 0.0558533 20.1488 1.619 20.1332 3.86288C20.1139 5.51137 21.6906 6.44034 22.8833 6.99113C24.1071 7.55743 24.5163 7.91428 24.5124 8.42046C24.5046 9.1904 23.5349 9.53949 22.6331 9.53949C21.3939 9.53949 20.717 9.36688 19.6756 8.9344L19.2896 8.75404L18.8494 11.3373C19.6038 11.6515 20.9633 11.9211 22.3674 11.9443C25.6663 11.9443 27.8229 10.3909 27.8482 8.00349C27.8753 6.68664 27.022 5.69173 25.2261 4.86943C24.1342 4.33609 23.4574 3.97925 23.4574 3.43816C23.4574 2.95913 24.0372 2.44713 25.2494 2.44713C26.0561 2.42761 26.8578 2.57896 27.6019 2.89125L27.8928 3.02119L28.333 0.525186L28.2574 0.54264V0.54264ZM36.3097 0.265308H33.8855C33.1311 0.265308 32.5628 0.472823 32.2331 1.22143L27.5708 11.7834H30.8697L31.5291 10.0515L35.5553 10.0554C35.6503 10.4607 35.9413 11.7834 35.9413 11.7834H38.8503L36.3097 0.265308V0.265308ZM15.6707 0.168337H18.8145L16.8479 11.6922H13.708L15.6707 0.164459V0.168337V0.168337ZM7.6901 6.51985L8.01591 8.11985L11.0879 0.265308H14.4179L9.47046 11.7679H6.14828L3.43313 2.02822C3.38915 1.86762 3.28588 1.72969 3.14416 1.64228C2.16554 1.13675 1.12863 0.753119 0.0566406 0.499973L0.0993072 0.257549H5.15919C5.84573 0.2847 6.39846 0.499973 6.5827 1.23306L7.68816 6.52567V6.51985H7.6901ZM32.4309 7.69513L33.6838 4.47185C33.6683 4.50676 33.9417 3.80664 34.1008 3.37416L34.316 4.36907L35.0433 7.69319H32.429V7.69513H32.4309Z" fill="black"/>
</g>
<defs>
<clipPath id="clip0">
<rect width="38.9091" height="12" fill="white"/>
</clipPath>
</defs>
</svg>
