<svg width="24" height="24" viewBox="0 0 24 18" fill="none" xmlns="http://www.w3.org/2000/svg">
<path d="M9.10332 9.10356C9.34364 8.86324 9.73328 8.86324 9.9736 9.10356L12 11.13L14.0264 9.10356C14.2667 8.86324 14.6564 8.86324 14.8967 9.10356C15.137 9.34389 15.137 9.73353 14.8967 9.97385L12.8703 12.0002L14.8967 14.0266C15.137 14.267 15.137 14.6566 14.8967 14.8969C14.6564 15.1372 14.2667 15.1372 14.0264 14.8969L12 12.8705L9.9736 14.8969C9.73328 15.1372 9.34364 15.1372 9.10332 14.8969C8.863 14.6566 8.863 14.267 9.10332 14.0266L11.1297 12.0002L9.10332 9.97385C8.863 9.73353 8.863 9.34389 9.10332 9.10356Z" fill="#FF3B30"/>
<path fill-rule="evenodd" clip-rule="evenodd" d="M4 12.0002C4 7.58345 7.58321 4.00024 12 4.00024C16.4168 4.00024 20 7.58345 20 12.0002C20 16.417 16.4168 20.0002 12 20.0002C7.58321 20.0002 4 16.417 4 12.0002ZM12 5.23101C8.26294 5.23101 5.23077 8.26319 5.23077 12.0002C5.23077 15.7373 8.26294 18.7695 12 18.7695C15.7371 18.7695 18.7692 15.7373 18.7692 12.0002C18.7692 8.26319 15.7371 5.23101 12 5.23101Z" fill="#FF3B30"/>
</svg>
