<svg width="24" height="24" viewBox="0 0 24 18" fill="none" xmlns="http://www.w3.org/2000/svg">
<path d="M12.5833 9.14286C12.5833 8.82727 12.3222 8.57143 12 8.57143C11.6778 8.57143 11.4167 8.82727 11.4167 9.14286V17.1429C11.4167 17.4584 11.6778 17.7143 12 17.7143C12.3222 17.7143 12.5833 17.4584 12.5833 17.1429V9.14286Z" fill="white"/>
<path d="M9.35418 8.57179C9.67614 8.56053 9.94646 8.80707 9.95796 9.12246L10.2496 17.1225C10.2611 17.4379 10.0094 17.7027 9.68749 17.7139C9.36553 17.7252 9.0952 17.4786 9.0837 17.1633L8.79204 9.16325C8.78054 8.84786 9.03222 8.58306 9.35418 8.57179Z" fill="white"/>
<path d="M15.208 9.16325C15.2195 8.84786 14.9678 8.58306 14.6458 8.57179C14.3239 8.56053 14.0535 8.80707 14.042 9.12246L13.7504 17.1225C13.7389 17.4379 13.9906 17.7027 14.3125 17.7139C14.6345 17.7252 14.9048 17.4786 14.9163 17.1633L15.208 9.16325Z" fill="white"/>
<path fill-rule="evenodd" clip-rule="evenodd" d="M9.08333 5.42931V6.28571H6.75539C6.75217 6.28569 6.74895 6.28569 6.74573 6.28571H5.58333C5.26117 6.28571 5 6.54155 5 6.85714C5 7.17273 5.26117 7.42857 5.58333 7.42857H6.20199L6.89678 18.3185C6.94746 19.253 7.66698 20 8.64583 20H15.3542C16.3423 20 17.0453 19.2464 17.1031 18.3207L17.1031 18.3206L17.798 7.42857H18.4167C18.7388 7.42857 19 7.17273 19 6.85714C19 6.54155 18.7388 6.28571 18.4167 6.28571H17.2543C17.251 6.28569 17.2478 6.28569 17.2446 6.28571H14.9167V5.42942C14.9171 5.24173 14.8797 5.05579 14.8067 4.88227C14.7335 4.7085 14.626 4.55061 14.4903 4.41769C14.3546 4.28477 14.1934 4.17944 14.016 4.10776C13.8389 4.03619 13.6492 3.99958 13.4576 4H10.5424C10.3508 3.99958 10.1611 4.03619 9.98398 4.10776C9.80658 4.17944 9.64541 4.28477 9.50972 4.41769C9.37403 4.55061 9.2665 4.70849 9.19333 4.88227C9.12028 5.05575 9.0829 5.24165 9.08333 5.42931ZM10.54 5.14286C10.5018 5.14275 10.4641 5.15002 10.4289 5.16426C10.3936 5.17849 10.3616 5.19941 10.3347 5.22581C10.3077 5.25221 10.2864 5.28356 10.2718 5.31807C10.2573 5.35259 10.2499 5.38957 10.25 5.4269L10.25 5.42858V6.28571H13.75V5.42858L13.75 5.4269C13.7501 5.38957 13.7427 5.35259 13.7282 5.31807C13.7136 5.28356 13.6923 5.2522 13.6653 5.22581C13.6384 5.19941 13.6064 5.17849 13.5711 5.16426C13.5359 5.15002 13.4982 5.14275 13.46 5.14286L13.4583 5.14286H10.5417L10.54 5.14286ZM9.66667 7.42858L9.66459 7.42857H7.37093L8.06136 18.2501L8.06151 18.2525C8.06159 18.2538 8.06166 18.2551 8.06173 18.2564C8.0819 18.641 8.34255 18.8571 8.64583 18.8571H15.3542C15.6545 18.8571 15.9139 18.6458 15.9386 18.2509L16.6291 7.42857H14.3354L14.3333 7.42858L14.3313 7.42857H9.66874L9.66667 7.42858Z" fill="red"/>
</svg>
